<svg width="144" height="24" fill="none" xmlns="http://www.w3.org/2000/svg"><path d="M12.603 14.232c.352.543.528 1.2.528 1.97 0 .78-.223 1.465-.67 2.055-.448.58-1.071 1.038-1.87 1.37-.8.324-1.746.486-2.84.486-.714 0-1.423-.08-2.127-.243a6.507 6.507 0 0 1-1.942-.813A4.268 4.268 0 0 1 2.284 17.6c-.352-.61-.528-1.351-.528-2.227H0c0 1.095.224 2.037.67 2.826a5.805 5.805 0 0 0 1.814 1.942 8.508 8.508 0 0 0 2.512 1.099 10.89 10.89 0 0 0 2.754.356c1.38 0 2.607-.214 3.683-.642 1.075-.438 1.922-1.06 2.54-1.87.619-.818.928-1.789.928-2.911 0-1.123-.271-2.07-.813-2.84-.533-.771-1.314-1.423-2.341-1.956-1.028-.533-2.28-.995-3.754-1.385-1.39-.38-2.493-.785-3.311-1.213-.81-.428-1.39-.904-1.742-1.427a3.23 3.23 0 0 1-.514-1.784c0-.695.195-1.332.586-1.913.39-.58.97-1.042 1.74-1.384.781-.352 1.742-.528 2.884-.528 1.132 0 2.098.204 2.897.613.8.41 1.409.97 1.828 1.685.428.704.642 1.508.642 2.412h1.755c0-1.161-.29-2.208-.87-3.14-.58-.942-1.404-1.69-2.47-2.241C10.353.52 9.092.245 7.636.245c-1.36 0-2.57.223-3.625.67-1.047.448-1.87 1.076-2.47 1.885-.59.799-.884 1.736-.884 2.812 0 .818.157 1.536.47 2.155a4.797 4.797 0 0 0 1.357 1.598c.599.457 1.313.861 2.14 1.214.838.352 1.78.67 2.827.956 1.436.409 2.569.828 3.397 1.256.827.419 1.413.9 1.755 1.441ZM23.922 21.312h1.741V2.029h7.122V.53H16.814V2.03h7.108v19.283Z" fill="#fafafa"/><path fill-rule="evenodd" clip-rule="evenodd" d="M32.571 21.312h1.827l2.144-5.824h9.439l2.148 5.824h1.827L42.09.53h-1.67l-7.85 20.782Zm8.686-18.63L37.094 13.99h8.334L41.257 2.682ZM63.487 1.23c-1.057-.467-2.303-.7-3.74-.7h-6.751v20.782h1.755v-8.664h6.058l5.004 8.664h1.884v-.186l-5.202-8.84a6.233 6.233 0 0 0 1.976-.965 5.716 5.716 0 0 0 1.713-2.013c.41-.799.614-1.689.614-2.669 0-1.322-.29-2.436-.87-3.34-.572-.913-1.385-1.603-2.441-2.07Zm-8.736 9.934h5.381c1.095 0 2.003-.21 2.727-.628.723-.428 1.265-.985 1.627-1.67a4.655 4.655 0 0 0 .556-2.227c0-1.418-.456-2.54-1.37-3.368-.904-.828-2.212-1.242-3.925-1.242h-4.996v9.135Z" fill="#fafafa"/><path d="M75.876 21.312h1.74V2.029h7.123V.53H68.768V2.03h7.108v19.283Z" fill="#fafafa"/><path fill-rule="evenodd" clip-rule="evenodd" d="M90.526 21.312h-1.401v-8.979h1.414v3.684c.149-.257.392-.472.731-.645.34-.174.728-.26 1.166-.26.876 0 1.558.297 2.046.892.496.587.744 1.34.744 2.257 0 .934-.26 1.703-.78 2.307-.513.595-1.2.893-2.06.893-.86 0-1.48-.319-1.86-.955v.806Zm2.79-1.637c.306-.347.46-.814.46-1.401 0-.587-.15-1.046-.447-1.377-.298-.339-.69-.508-1.178-.508-.471 0-.86.17-1.166.508-.306.33-.459.79-.459 1.377 0 .578.153 1.041.46 1.389.305.347.694.52 1.165.52.48 0 .868-.17 1.166-.508Z" fill="#fafafa"/><path d="M98.166 23.755h-1.538l1.451-3.162-2.58-5.32h1.625l1.737 3.82 1.624-3.82h1.525l-3.844 8.482ZM143.585 22.078H144v-9.406h-1.983v5.317l-5.94-5.35h-.437v9.352h2.006v-5.296h.034l5.905 5.383ZM129.891 15.205c0-.49.527-.913 1.48-.913.739 0 1.714.272 2.342.717v-1.903c-.639-.358-1.592-.641-2.51-.641-2.163 0-3.418 1.272-3.418 2.784 0 1.707 1.535 2.349 2.566 2.74l.079.031c.957.375 1.658.65 1.658 1.296 0 .598-.583 1.066-1.58 1.066-.942 0-2.006-.435-2.69-1.023v2.001c.661.468 1.737.838 2.914.838 2.23 0 3.552-1.273 3.552-2.936 0-1.873-1.684-2.476-2.922-2.919l-.081-.029c-.796-.315-1.39-.587-1.39-1.109ZM124.781 20.295h1.917v-3.883h-4.057v1.806h2.14v2.077Z" fill="#fafafa"/><path d="M123.101 14.466h.325v-2.012h-.314c-3.138 0-5.368 2.034-5.368 4.861 0 2.816 2.23 4.883 5.368 4.883h.314v-2.045h-.325c-1.962 0-3.273-1.174-3.273-2.838 0-1.631 1.323-2.85 3.273-2.85ZM114.147 22.089l3.552-9.417h-2.14l-1.715 4.86h-.033l-2.298-4.86h-.257l-2.275 4.86h-.023l-1.714-4.86h-2.219l3.564 9.417h.257l2.499-5.274h.034l2.499 5.274h.269Z" fill="#fafafa"/></svg>